PathFileType	4	(X/Y/Z)	C:\Users\WrightLab\Desktop\Jo\P4V123.trc
DataRate	CameraRate	NumFrames	NumMarkers	Units	OrigDataRate	OrigDataStartFrame	OrigNumFrames
100.00	100.00	       14	19	mm	100.00	253	       504
Frame#	Time	Headset_Front			Headset_Back			Headset_Left			Headset_Right			Left_Shoulder			Right_Shoulder			Sternum			C7			Left Elbow			Right Elbow			Left Wrist			Right Wrist			Left ASIS			Right ASIS			S2			Left Knee			Right Knee			Left Ankle			Right Ankle			
		X1	Y1	Z1	X2	Y2	Z2	X3	Y3	Z3	X4	Y4	Z4	X5	Y5	Z5	X6	Y6	Z6	X7	Y7	Z7	X8	Y8	Z8	X9	Y9	Z9	X10	Y10	Z10	X11	Y11	Z11	X12	Y12	Z12	X13	Y13	Z13	X14	Y14	Z14	X15	Y15	Z15	X16	Y16	Z16	X17	Y17	Z17	X18	Y18	Z18	X19	Y19	Z19	

253	2.520							-590.66797	1658.11902	94.07681	-366.47589	1637.81421	52.53217	-603.24945	1500.77966	266.28094	-328.55466	1518.68726	186.34853	-503.84079	1439.20813	122.74453	-450.35315	1551.39087	267.64011	-780.35785	1169.90894	266.22226	-91.81440	1421.94629	-39.10305	-869.78815	967.88922	43.33190	-100.57205	1446.86353	-341.29364	-623.17566	1010.12439	239.00125	-361.85712	995.06915	30.84596	-393.22876	1036.61938	289.38156	-554.30841	547.02692	370.35837	-436.95178	536.15302	-26.94200	-333.00394	109.83582	562.60944	-565.86713	44.85265	-30.84943	
254	2.530	-460.91544	1550.69958	-40.60396				-594.55872	1657.00037	82.18166	-369.24042	1636.44922	45.46096	-607.09485	1499.75806	255.43668	-331.92398	1517.49707	176.30429	-507.30112	1438.55042	112.32070	-453.56076	1550.44446	257.60474	-783.76752	1168.44067	254.13588	-93.04278	1420.71179	-47.68869	-871.26581	966.67145	32.19060	-102.20037	1445.37964	-350.17862	-628.89453	1009.56769	226.79616	-366.22321	995.27722	19.97797	-398.71933	1035.32813	278.59036	-563.97296	547.04797	360.49323	-439.70917	534.89404	-38.27180	-336.30310	115.21835	560.69525	-568.02429	47.19576	-34.56558	
255	2.540	-463.08603	1550.06677	-50.48311				-597.08539	1657.05078	71.92493				-610.84180	1499.54053	244.58582	-335.16672	1516.47412	166.66075	-510.33807	1438.43103	102.00970	-457.25433	1549.90442	247.40643	-787.56897	1168.29236	242.72839	-94.69234	1419.58154	-56.26859	-872.99445	964.93036	20.47312	-103.43625	1444.86487	-358.53970	-634.49811	1009.00262	214.50822	-370.82785	995.20557	9.25587	-404.83444	1034.35046	267.70093	-572.90326	545.47363	348.37497	-441.89182	533.22369	-48.40257	-339.62741	121.26105	557.76141	-569.06323	48.06783	-37.45380	
256	2.550	-465.38181	1549.45667	-60.48140				-599.32855	1657.12341	61.45543	-374.27664	1635.29211	26.63164	-614.11749	1499.52441	232.91368	-338.43390	1515.61670	156.57820	-513.56104	1438.58472	90.80694	-459.77798	1548.94702	235.41818	-790.61877	1167.84631	230.49925	-97.45338	1418.03210	-65.22411	-874.11206	963.75360	8.09151	-106.04722	1444.01819	-367.60876	-639.84619	1008.82294	202.49251	-375.15649	996.09552	-1.65583	-411.07037	1033.91345	255.84477	-582.11133	544.05511	334.67151	-444.73471	531.96637	-57.43961	-343.95651	127.82967	553.68097	-570.32690	49.60870	-40.22016	
257	2.560	-467.78210	1549.28967	-71.04742				-602.22723	1657.62354	49.96275	-376.66733	1635.05835	17.32792	-618.15271	1499.54675	222.94553	-341.81052	1516.12720	146.54655	-516.50201	1439.16211	80.01926	-464.51587	1550.29260	226.85571	-794.14917	1167.87402	219.32402	-100.78819	1416.66528	-74.03889	-875.45044	962.51703	-2.92568	-108.56221	1442.75061	-376.05084	-645.02948	1009.13763	190.52258	-378.83652	997.27283	-12.20991	-416.14630	1034.95508	246.45795	-592.68042	543.96118	320.43579	-448.06985	531.41528	-65.68166	-349.07678	136.15327	549.11157	-571.85071	48.55132	-42.12708	
258	2.570	-470.19595	1549.33337	-81.29839				-605.09290	1658.17517	39.13878	-379.30273	1635.60278	5.14460	-621.84821	1500.07019	212.71263	-345.24817	1516.30554	136.29338	-520.29730	1440.11267	69.07588	-465.93832	1549.14246	214.16493	-797.06921	1167.97681	206.63287	-103.51671	1415.42542	-82.43922	-875.83289	960.40521	-12.34036	-109.57710	1441.45923	-384.71460	-649.67273	1009.33356	178.14572	-382.73465	998.47449	-22.65912	-420.50677	1034.31274	234.17271	-604.05621	543.20093	305.56049	-452.49890	532.51593	-73.15383	-354.40375	144.94182	543.81329	-571.43842	50.21999	-42.83740	
259	2.580	-472.64011	1550.06238	-91.92142				-609.50293	1658.53821	26.68018				-625.26575	1500.93103	201.73151	-348.52094	1516.48389	126.14956	-523.55493	1441.01440	59.08654	-470.24567	1550.15723	204.01819	-799.87598	1168.53406	195.95483	-105.64185	1414.52771	-91.04384	-876.47021	958.93719	-22.90048	-111.52165	1441.19165	-392.73373	-654.59778	1009.43188	166.31438	-385.81323	1000.24994	-31.87389	-426.01041	1035.62830	224.44055	-615.99921	541.90900	290.57074	-456.03125	534.42365	-82.09827	-359.95447	155.41881	537.24103	-571.04462	50.74091	-44.78188	
260	2.590	-475.16788	1550.68848	-102.44115				-611.60217	1660.35486	15.64022	-384.75537	1635.71606	-11.32147	-629.04047	1502.32190	190.49382	-351.94012	1516.75500	116.02414	-527.05493	1442.05518	48.63639	-475.50159	1552.15881	195.42226	-802.32123	1168.79346	184.70241	-108.47619	1414.17712	-100.15662	-877.40698	957.51434	-32.82781	-115.35893	1441.43542	-402.40793	-658.78772	1009.49707	153.82030	-388.56613	1001.99963	-42.31666	-431.07590	1036.80774	215.38165	-628.34991	540.67755	274.19907	-458.28040	536.53522	-89.40314	-366.62570	166.91939	529.54962	-571.50787	49.84817	-45.95288	
261	2.600	-477.90417	1551.82813	-113.27801				-613.20984	1660.95557	6.20825	-387.59903	1637.49854	-26.10919	-633.04926	1503.71948	179.85849	-355.29099	1517.48047	105.82809	-530.32562	1443.59705	37.37844	-477.08856	1551.38733	182.80223	-804.54932	1169.51917	174.41670	-111.14172	1413.08911	-108.34673	-877.41547	955.43799	-41.31844	-115.25166	1440.24585	-410.43094	-663.07269	1009.90625	141.71385	-391.34167	1002.97150	-50.30556	-435.56195	1037.52258	205.27510	-641.03888	538.64801	256.50641	-460.70944	538.18420	-98.82735	-373.83173	179.97537	520.05261	-571.79968	49.93777	-46.53047	
262	2.610	-480.33929	1552.84827	-123.03254				-615.93048	1662.19055	-4.23530				-636.54456	1505.06274	168.55681	-358.72922	1517.86987	95.52703	-533.27783	1444.52002	27.97750	-482.41125	1553.45142	173.88124	-807.25909	1170.11707	163.55249	-113.58016	1413.05188	-115.92066	-877.53333	953.91791	-50.88985	-115.82159	1439.16345	-418.29092	-666.99652	1010.62360	128.64288	-391.64923	1004.40656	-60.89103	-440.50562	1037.86877	194.91043	-655.62457	537.42224	238.27394	-462.39792	538.72784	-107.93252	-382.22098	192.81836	509.34244	-571.45538	50.57937	-48.62714	
263	2.620	-482.62323	1554.07129	-134.28949				-620.47852	1663.66528	-17.07456				-640.67450	1506.32043	157.56784	-362.28568	1518.47620	85.56412	-536.76624	1445.42407	16.00747	-485.86786	1553.74487	163.66197	-809.56396	1170.18750	153.28761	-116.05219	1412.93396	-125.01240	-877.80011	951.51575	-58.73666	-118.28606	1438.37317	-427.86829	-670.53632	1011.12799	116.18954	-393.36810	1006.02435	-69.56956	-445.82211	1037.76123	185.57820	-669.26581	536.04303	219.01097	-461.67816	538.99725	-117.82650	-391.43188	206.29359	497.79202	-571.21948	50.87906	-48.86634	
264	2.630	-485.23257	1555.47583	-144.29263				-621.30383	1664.17078	-26.34285				-644.52722	1507.54199	147.21449	-365.77457	1519.19238	75.66284	-539.31049	1446.08008	6.42212	-488.21313	1553.49817	151.94067	-812.15277	1170.44397	143.80380	-119.36337	1412.88647	-133.94199	-878.19257	949.84412	-67.68851	-118.97923	1437.64563	-436.06631	-673.98145	1011.98077	103.29939	-393.43784	1006.48047	-78.35819	-450.73163	1037.72412	176.30663	-682.25763	534.56384	198.47810	-460.35303	538.46979	-126.00066	-401.88931	220.33838	483.19516	-571.26544	50.88541	-48.89177	
265	2.640	-487.55954	1556.31238	-154.48134				-624.34833	1665.64880	-36.49087				-648.09717	1508.93079	136.55429	-369.00717	1519.85742	65.76524	-542.57214	1446.80444	-4.90063	-491.66953	1554.23682	141.70457	-814.77960	1171.10913	133.55099	-120.84718	1413.20862	-141.42358	-878.38519	947.51965	-75.48125	-120.82407	1437.17419	-445.24530	-677.00598	1012.67657	91.37179	-393.94547	1007.85205	-87.14927	-454.48355	1037.40454	167.78996	-694.84692	533.86517	177.25270	-458.35464	537.22791	-132.62637	-412.62262	233.11334	469.16519	-571.34802	50.85483	-48.92004	
266	2.650	-490.05228	1557.33997	-164.31296				-627.09967	1666.42432	-47.14848				-651.54022	1509.58105	123.88080	-372.18442	1520.76575	55.99979	-544.97406	1447.25427	-14.12486	-496.48007	1555.60168	132.33321	-817.25690	1170.76636	123.71786	-122.86801	1414.00684	-150.75482	-878.76184	945.30518	-82.67600	-122.35468	1436.55969	-454.02063	-680.42035	1013.75574	78.67882	-394.12103	1008.05377	-95.35098	-458.49478	1038.22839	159.97415	-706.67401	533.18097	156.51509	-458.13235	536.69952	-138.58882	-425.28015	246.07475	452.67996	-571.35590	50.87806	-48.93355	
